# xmcd CD Database Entry
#
# Track frame offsets:
# 150
# 13810
# 37880
# 56377
# 79547
# 105102
# 129655
# 176005
# 239515
# 255680
# 279245
#
# Disc length: 3939 seconds
#
# Revision: 2
# Processed by: cddbd v1.5.1PL0 Copyright (c) Steve Scherf et al.
# Submitted via: tcd 2.0b
#
DISCID=830f610b
DTITLE=Various Artist - Famous Classical Music - Volume 1
DYEAR=1900
DGENRE=
TTITLE0=Jeremiah Clarke - Trumpet Voluntary
TTITLE1=Claude Debussy - Clair de Lune
TTITLE2=Antonin Dvorak - Danse Slave No. 1 Op. 46
TTITLE3=Antonin Dvorak - Danse Slave No. 2 Op. 46
TTITLE4=Michael Iwanowitsch Glinka - Ouverture de "Russlan and Ludmil
TTITLE4=la"
TTITLE5=Edvard Hagerup Grieg - Solveigs Lied
TTITLE6=Franz Liszt - Hungarian Rhapsody No. 5
TTITLE7=Franz Liszt - Hungarian Rhapsody No. 6
TTITLE8=Pietro Mascagni - Intermezzo de "Cavalleria Rusticana"
TTITLE9=Jules Massenet - Meditation de Thais
TTITLE10=Felix Mendelssohn-Bartoldy - Venezianisches Gondellied
EXTD=
EXTT0=
EXTT1=
EXTT2=
EXTT3=
EXTT4=
EXTT5=
EXTT6=
EXTT7=
EXTT8=
EXTT9=
EXTT10=
PLAYORDER=
